<svg xmlns="http://www.w3.org/2000/svg" viewBox="0 0 220 220" width="220" height="220">
  <defs>
    <filter id="rough">
      <feTurbulence type="fractalNoise" baseFrequency="0.035" numOctaves="2" seed="4"></feTurbulence>
      <feDisplacementMap in="SourceGraphic" scale="1.6"></feDisplacementMap>
    </filter>
    <filter id="grain">
      <feTurbulence type="fractalNoise" baseFrequency="0.9" numOctaves="2" seed="3"></feTurbulence>
      <feColorMatrix values="0 0 0 0 0  0 0 0 0 0  0 0 0 0 0  0 0 0 0.4 0"></feColorMatrix>
      <feComposite in2="SourceGraphic" operator="in"></feComposite>
    </filter>
  </defs>

  
  <g filter="url(#rough)">
    <circle cx="110" cy="110" r="100" fill="#0a0907"></circle>
    <circle cx="110" cy="110" r="100" fill="none" stroke="#ece4d2" stroke-width="2"></circle>
    <circle cx="110" cy="110" r="92" fill="none" stroke="#ece4d2" stroke-width="0.8"></circle>
  </g>

  
  <defs>
    <path id="arcTop" d="M 30 110 A 80 80 0 0 1 190 110" fill="none"></path>
    <path id="arcBot" d="M 30 110 A 80 80 0 0 0 190 110" fill="none"></path>
  </defs>
  <text font-family="Oswald, Impact, sans-serif" font-weight="700" font-size="13" fill="#ece4d2" letter-spacing="5">
    <textPath href="#arcTop" startOffset="50%" text-anchor="middle">ESPAÑOLA · HISPANIOLA</textPath>
  </text>
  <text font-family="Oswald, Impact, sans-serif" font-weight="700" font-size="11" fill="#b81d13" letter-spacing="6">
    <textPath href="#arcBot" startOffset="50%" text-anchor="middle">МЫ — НЕ РАБЫ</textPath>
  </text>

  
  <g fill="#ece4d2" filter="url(#rough)">
    
    <g stroke="#ece4d2" stroke-width="3.4" stroke-linecap="round" fill="none">
      <line x1="58" y1="62" x2="162" y2="166"></line>
      <line x1="162" y1="62" x2="58" y2="166"></line>
    </g>
    
    <g fill="#ece4d2">
      <circle cx="58" cy="62" r="3.6"></circle>
      <circle cx="162" cy="62" r="3.6"></circle>
      <circle cx="58" cy="166" r="3.6"></circle>
      <circle cx="162" cy="166" r="3.6"></circle>
    </g>

    
    <path d="M110 70&#xA;             c-22 0 -38 16 -38 36&#xA;             c0 11 5 21 13 28&#xA;             v8&#xA;             c0 3 2 5 5 5&#xA;             h6 v-7 h6 v7 h16 v-7 h6 v7 h6&#xA;             c3 0 5 -2 5 -5&#xA;             v-8&#xA;             c8 -7 13 -17 13 -28&#xA;             c0 -20 -16 -36 -38 -36 z"></path>
    
    <rect x="106" y="138" width="8" height="3" fill="#0a0907"></rect>
    <rect x="98" y="142" width="6" height="2" fill="#0a0907"></rect>
    <rect x="116" y="142" width="6" height="2" fill="#0a0907"></rect>
  </g>
  
  <g fill="#0a0907">
    
    <path d="M82 100 q10 -2 18 0 l5 14 q-13 4 -23 0 z"></path>
    
    <path d="M70 96 q22 -6 42 4" fill="none" stroke="#0a0907" stroke-width="2.5"></path>
    
    <ellipse cx="128" cy="106" rx="8" ry="9"></ellipse>
    
    <path d="M108 116 l4 8 l-6 2 l2 -10z"></path>
  </g>

  
  <circle cx="110" cy="118" r="1.6" fill="#b81d13" opacity="0.9"></circle>

  
  <circle cx="110" cy="110" r="100" filter="url(#grain)" opacity="0.25"></circle>
</svg>